[img]http://img801.imageshack.us/img801/8088/poster320x200.jpg[/img]

Info: http://www.aceshowbiz.com/movie/1066/

Dutch Releasedate: 2011

Audio: English.  Subs: English hardcoded when needed & Dutch subs (selectable).

Total playingtime: 150 minutes ( 3 parts).


General
Complete name                    : 1066-The Battle for England-AC3-XviD-DVDRip 2011\Part 1.avi
Format                           : AVI
Format/Info                      : Audio Video Interleave
File size                        : 712 MiB
Duration                         : 48mn 37s
Overall bit rate                 : 2 048 Kbps
Writing application              : VirtualDubMod 1.5.4.1 (build 2178/release)
Writing library                  : VirtualDubMod build 2178/release

Video
ID                               : 0
Format                           : MPEG-4 Visual
Format profile                   : Simple@L3
Format settings, BVOP            : No
Format settings, QPel            : No
Format settings, GMC             : No warppoints
Format settings, Matrix          : Default (H.263)
Codec ID                         : XVID
Codec ID/Hint                    : XviD
Duration                         : 48mn 37s
Bit rate                         : 1 814 Kbps
Width                            : 640 pixels
Height                           : 352 pixels
Display aspect ratio             : 16:9
Frame rate                       : 25.000 fps
Resolution                       : 8 bits
Colorimetry                      : 4:2:0
Scan type                        : Progressive
Bits/(Pixel*Frame)               : 0.322
Stream size                      : 631 MiB (89%)
Writing library                  : XviD 1.1.2 (UTC 2006-11-01)

Audio
ID                               : 1
Format                           : AC-3
Format/Info                      : Audio Coding 3
Codec ID                         : 2000
Duration                         : 48mn 36s
Bit rate mode                    : Constant
Bit rate                         : 224 Kbps
Channel(s)                       : 2 channels
Channel positions                : L R
Sampling rate                    : 48.0 KHz
Stream size                      : 77.9 MiB (11%)
Alignment                        : Split accross interleaves
Interleave, duration             : 40 ms (1.00 video frame)
Interleave, preload duration     : 500 ms

Enjoy...

[img]http://img713.imageshack.us/img713/692/1066thebattleforengland.jpg[/img]